<svg id="visual" viewBox="0 0 960 540" width="960" height="540" xmlns="http://www.w3.org/2000/svg" xmlns:xlink="http://www.w3.org/1999/xlink" version="1.1"><rect x="0" y="0" width="960" height="540" fill="#001220"></rect><path d="M0 130L22.8 137.3C45.7 144.7 91.3 159.3 137 161.8C182.7 164.3 228.3 154.7 274 151.7C319.7 148.7 365.3 152.3 411.2 155.3C457 158.3 503 160.7 548.8 157.5C594.7 154.3 640.3 145.7 686 137C731.7 128.3 777.3 119.7 823 125.2C868.7 130.7 914.3 150.3 937.2 160.2L960 170L960 0L937.2 0C914.3 0 868.7 0 823 0C777.3 0 731.7 0 686 0C640.3 0 594.7 0 548.8 0C503 0 457 0 411.2 0C365.3 0 319.7 0 274 0C228.3 0 182.7 0 137 0C91.3 0 45.7 0 22.8 0L0 0Z" fill="#fa7268"></path><path d="M0 86L22.8 93.2C45.7 100.3 91.3 114.7 137 124.3C182.7 134 228.3 139 274 135.5C319.7 132 365.3 120 411.2 110.5C457 101 503 94 548.8 93.2C594.7 92.3 640.3 97.7 686 98.5C731.7 99.3 777.3 95.7 823 99.5C868.7 103.3 914.3 114.7 937.2 120.3L960 126L960 0L937.2 0C914.3 0 868.7 0 823 0C777.3 0 731.7 0 686 0C640.3 0 594.7 0 548.8 0C503 0 457 0 411.2 0C365.3 0 319.7 0 274 0C228.3 0 182.7 0 137 0C91.3 0 45.7 0 22.8 0L0 0Z" fill="#ef5f67"></path><path d="M0 69L22.8 75.5C45.7 82 91.3 95 137 95C182.7 95 228.3 82 274 81.5C319.7 81 365.3 93 411.2 94.8C457 96.7 503 88.3 548.8 81.7C594.7 75 640.3 70 686 75.7C731.7 81.3 777.3 97.7 823 102.2C868.7 106.7 914.3 99.3 937.2 95.7L960 92L960 0L937.2 0C914.3 0 868.7 0 823 0C777.3 0 731.7 0 686 0C640.3 0 594.7 0 548.8 0C503 0 457 0 411.2 0C365.3 0 319.7 0 274 0C228.3 0 182.7 0 137 0C91.3 0 45.7 0 22.8 0L0 0Z" fill="#e34c67"></path><path d="M0 61L22.8 64.8C45.7 68.7 91.3 76.3 137 76.3C182.7 76.3 228.3 68.7 274 63C319.7 57.3 365.3 53.7 411.2 51.3C457 49 503 48 548.8 51.7C594.7 55.3 640.3 63.7 686 68.8C731.7 74 777.3 76 823 76.5C868.7 77 914.3 76 937.2 75.5L960 75L960 0L937.2 0C914.3 0 868.7 0 823 0C777.3 0 731.7 0 686 0C640.3 0 594.7 0 548.8 0C503 0 457 0 411.2 0C365.3 0 319.7 0 274 0C228.3 0 182.7 0 137 0C91.3 0 45.7 0 22.8 0L0 0Z" fill="#d53867"></path><path d="M0 22L22.8 23.8C45.7 25.7 91.3 29.3 137 33.5C182.7 37.7 228.3 42.3 274 40.8C319.7 39.3 365.3 31.7 411.2 28.5C457 25.3 503 26.7 548.8 29.3C594.7 32 640.3 36 686 37.5C731.7 39 777.3 38 823 34.3C868.7 30.7 914.3 24.3 937.2 21.2L960 18L960 0L937.2 0C914.3 0 868.7 0 823 0C777.3 0 731.7 0 686 0C640.3 0 594.7 0 548.8 0C503 0 457 0 411.2 0C365.3 0 319.7 0 274 0C228.3 0 182.7 0 137 0C91.3 0 45.7 0 22.8 0L0 0Z" fill="#c62368"></path></svg>