<svg id="visual" viewBox="0 0 960 540" width="960" height="540" xmlns="http://www.w3.org/2000/svg" xmlns:xlink="http://www.w3.org/1999/xlink" version="1.1"><rect x="0" y="0" width="960" height="540" fill="#001220"></rect><path d="M175 0L184.8 12.8C194.7 25.7 214.3 51.3 217.7 77C221 102.7 208 128.3 204 154C200 179.7 205 205.3 209.2 231.2C213.3 257 216.7 283 212.5 308.8C208.3 334.7 196.7 360.3 185.2 386C173.7 411.7 162.3 437.3 169.7 463C177 488.7 203 514.3 216 527.2L229 540L0 540L0 527.2C0 514.3 0 488.7 0 463C0 437.3 0 411.7 0 386C0 360.3 0 334.7 0 308.8C0 283 0 257 0 231.2C0 205.3 0 179.7 0 154C0 128.3 0 102.7 0 77C0 51.3 0 25.7 0 12.8L0 0Z" fill="#fa7268"></path><path d="M117 0L126.5 12.8C136 25.7 155 51.3 167.8 77C180.7 102.7 187.3 128.3 182.7 154C178 179.7 162 205.3 149.3 231.2C136.7 257 127.3 283 126.3 308.8C125.3 334.7 132.7 360.3 133.8 386C135 411.7 130 437.3 135.2 463C140.3 488.7 155.7 514.3 163.3 527.2L171 540L0 540L0 527.2C0 514.3 0 488.7 0 463C0 437.3 0 411.7 0 386C0 360.3 0 334.7 0 308.8C0 283 0 257 0 231.2C0 205.3 0 179.7 0 154C0 128.3 0 102.7 0 77C0 51.3 0 25.7 0 12.8L0 0Z" fill="#ef5f67"></path><path d="M95 0L103.5 12.8C112 25.7 129 51.3 128.8 77C128.7 102.7 111.3 128.3 110.7 154C110 179.7 126 205.3 128.5 231.2C131 257 120 283 111.2 308.8C102.3 334.7 95.7 360.3 103.2 386C110.7 411.7 132.3 437.3 138.3 463C144.3 488.7 134.7 514.3 129.8 527.2L125 540L0 540L0 527.2C0 514.3 0 488.7 0 463C0 437.3 0 411.7 0 386C0 360.3 0 334.7 0 308.8C0 283 0 257 0 231.2C0 205.3 0 179.7 0 154C0 128.3 0 102.7 0 77C0 51.3 0 25.7 0 12.8L0 0Z" fill="#e34c67"></path><path d="M84 0L89 12.8C94 25.7 104 51.3 103.8 77C103.7 102.7 93.3 128.3 85.8 154C78.3 179.7 73.7 205.3 70.7 231.2C67.7 257 66.3 283 71.3 308.8C76.3 334.7 87.7 360.3 94.7 386C101.7 411.7 104.3 437.3 105 463C105.7 488.7 104.3 514.3 103.7 527.2L103 540L0 540L0 527.2C0 514.3 0 488.7 0 463C0 437.3 0 411.7 0 386C0 360.3 0 334.7 0 308.8C0 283 0 257 0 231.2C0 205.3 0 179.7 0 154C0 128.3 0 102.7 0 77C0 51.3 0 25.7 0 12.8L0 0Z" fill="#d53867"></path><path d="M31 0L33.5 12.8C36 25.7 41 51.3 46.7 77C52.3 102.7 58.7 128.3 56.7 154C54.7 179.7 44.3 205.3 40.2 231.2C36 257 38 283 41.5 308.8C45 334.7 50 360.3 51.8 386C53.7 411.7 52.3 437.3 47.5 463C42.7 488.7 34.3 514.3 30.2 527.2L26 540L0 540L0 527.2C0 514.3 0 488.7 0 463C0 437.3 0 411.7 0 386C0 360.3 0 334.7 0 308.8C0 283 0 257 0 231.2C0 205.3 0 179.7 0 154C0 128.3 0 102.7 0 77C0 51.3 0 25.7 0 12.8L0 0Z" fill="#c62368"></path></svg>